<svg xmlns="http://www.w3.org/2000/svg" data-name="Layer 1" viewBox="0 0 24 24"><path d="M1.961 5.144h20.228V18.99H1.961z" style="fill:#fff;fill-opacity:1;stroke:#000;stroke-width:0;stroke-dasharray:none;paint-order:markers stroke fill"/><path fill="#6563ff" d="M17 11h1a1 1 0 0 0 1-1V9a1 1 0 0 0-1-1h-1a1 1 0 0 0-1 1v1a1 1 0 0 0 1 1M6 12h5a1 1 0 0 0 0-2H6a1 1 0 0 0 0 2m16-8H2a1 1 0 0 0-1 1v14a1 1 0 0 0 1 1h20a1 1 0 0 0 1-1V5a1 1 0 0 0-1-1m-1 14H3V6h18ZM6 16h5a1 1 0 0 0 0-2H6a1 1 0 0 0 0 2" style="fill:#000"/><text xml:space="preserve" x="11.755" y="21.189" style="font-size:7.84844px;line-height:1.25;font-family:Impact;-inkscape-font-specification:Impact;letter-spacing:0;word-spacing:0;stroke-width:.588635" transform="scale(1.2487 .80084)"><tspan x="11.755" y="21.189" style="stroke-width:.588635">H</tspan></text></svg>